<svg xmlns="http://www.w3.org/2000/svg" viewBox="0 0 100 70" width="100" height="70" role="img" aria-label="Salesforce Logo">
  <!-- Salesforce Cloud Mark -->
  <path d="M42.2 10.3c4.7-5.5 11.7-9 19.5-9 12.1 0 22.3 8.4 24.8 19.7 4.1 1.9 7.2 5.4 8.7 9.8 1.9 5.6 1.4 11.7-1.4 16.8-2.8 5.1-7.6 8.7-13.3 9.9-1.9.4-3.8.6-5.8.6H24.5c-4.9 0-9.6-1.7-13.3-4.9C6.4 49.3 3.4 44.5 2.7 39.2c-.8-5.3.6-10.7 3.8-15 3.3-4.3 8-7 13.4-7.7 2.1-.3 4.3-.1 6.3.5 3.6-4 8.8-6.7 16-6.7z" fill="#00A1E0"/>
  <!-- Salesforce Script Text -->
  <path d="M28.4 34.6c-.7-1.1-.9-2.3-.9-3.5 0-3.6 2.7-6.2 6.5-6.2 2.4 0 4.2 1 5.3 2.5l-2.4 1.8c-.7-.9-1.7-1.5-2.9-1.5-1.9 0-3.2 1.4-3.2 3.4 0 1.9 1.3 3.3 3.3 3.3 1.2 0 2.2-.5 2.9-1.4l2.4 1.8c-1.2 1.6-3 2.6-5.3 2.6-2.2 0-4.1-.9-5.1-2.8zm15.4 2.6h-3.2V22.2h3.2v15zm10.7-9.4c-.6-.4-1.3-.7-2.2-.7-1.6 0-2.8 1-2.8 2.6 0 1.4 1 2.1 2.3 2.6l1.3.5c2.4.9 3.8 2.2 3.8 4.6 0 2.9-2.4 4.8-5.7 4.8-2 0-3.7-.7-4.8-1.9l1.9-2.1c.8.9 1.8 1.4 2.9 1.4 1.6 0 2.6-.9 2.6-2.2 0-1.4-.9-2.1-2.5-2.7l-1.3-.5c-2.2-.9-3.6-2.1-3.6-4.4 0-2.8 2.3-4.8 5.4-4.8 1.7 0 3.2.5 4.2 1.4l-1.5 2.4zm10.1 9.4h-3.2V22.2h3.2v15zm8.5-4.2h5.5v2.8h-5.5v6.4h-3.2V22.2h9.1v2.8h-5.9v4.2z" fill="#ffffff"/>
</svg>
